<svg xmlns="http://www.w3.org/2000/svg" viewBox="0 0 30 30">
  <rect width="30" height="30" fill="none"/>
  <path
    d="M15.5.52808,5.84619,16.61743l.34131.273C6.23584,16.929,11,20.80615,11,26.5V30h1V26.5c0-.16992-.014-.3335-.02136-.5h7.04272C19.014,26.1665,19,26.33008,19,26.5V30h1V26.5c0-5.67993,4.76465-9.57129,4.8125-9.60986l.34082-.27344ZM15.5,15A1.5,1.5,0,1,1,14,16.5,1.50164,1.50164,0,0,1,15.5,15Zm3.608,10H11.892a14.86654,14.86654,0,0,0-4.74646-8.604L15,3.30518V14.05054a2.5,2.5,0,1,0,1,0V3.30518L23.85449,16.396A14.86654,14.86654,0,0,0,19.108,25Z"
    fill="#204ecf"/>
</svg>
